PathFileType	4	(X/Y/Z)	C:/Users/beibeiliu/ov580/test_trc/User3\out9_training_dense_left.trc
DataRate	CameraRate	NumFrames	NumMarkers	Units	OrigDataRate	OrigDataStartFrame	OrigNumFrames
120	120	22	19	mm	120	438	500
Frame#	Time	ThumbCMC			ThumbMCP			ThumbIP			ThumbTip			IndexMCP			IndexPIP			IndexTip			MiddleMCP			MiddlePIP			MiddleTip			RingMCP			RingPIP			RingTip			PinkyMCP			PinkyPIP			PinkyTip			BackHand1			BackHand2			BackHand3	
		X0	Y0	Z0	X1	Y1	Z1	X2	Y2	Z2	X3	Y3	Z3	X4	Y4	Z4	X5	Y5	Z5	X6	Y6	Z6	X7	Y7	Z7	X8	Y8	Z8	X9	Y9	Z9	X10	Y10	Z10	X11	Y11	Z11	X12	Y12	Z12	X13	Y13	Z13	X14	Y14	Z14	X15	Y15	Z15	X16	Y16	Z16	X17	Y17	Z17	X18	Y18	Z18	
437	3.64167	-130.662	57.114	72.1707	-110.046	74.8523	53.9983	-87.8127	74.2582	29.7462	-67.7117	62.0795	17.7016	-131.142	44.8338	0.257967	-107.856	59.0344	-20.6711	-81.004	72.9959	-8.08711	-128.329	14.709	-3.45301	-124.725	22.6722	-32.8382	-102.923	34.2323	-61.3177	-112.243	-0.451617	9.08746	-101.791	-0.322437	-21.0047	-83.1253	7.81862	-41.6984	-92.6896	-7.51434	25.7503	-75.6243	-9.19755	3.79013	-63.7601	-4.74614	-11.0098	-126.371	-6.03774	52.9972	-132.886	-7.06702	86.0817	-150.357	25.1847	64.9765	
438	3.65	-119.254	58.9388	76.0227	-93.4765	69.2883	53.9783	-71.257	69.4553	30.4828	-58.1856	51.2354	18.1952	-125.06	50.5694	-0.568419	-106.188	64.3089	-21.4754	-74.3517	65.1274	-17.3683	-134.907	24.9766	-5.47932	-129.789	31.734	-35.4411	-115.051	37.2851	-59.9034	-122.095	7.83395	4.8239	-112.973	1.42614	-21.5752	-94.9104	6.13747	-41.9914	-101.363	-10.3316	22.2307	-86.46	-9.88608	-0.883351	-70.7952	-8.30615	-17.2666	-136.878	4.25485	54.8389	-139.914	3.25735	80.0689	-147.07	30.4608	66.7192	
439	3.65833	-105.313	62.9037	76.1589	-79.6802	61.6328	56.5164	-59.5653	58.2383	32.7446	-50.0784	42.2567	16.166	-121.349	58.5162	4.33004	-99.1908	69.5234	-21.1211	-69.5123	63.963	-23.4454	-136.932	40.5076	0.797621	-135.536	46.536	-27.8901	-122.463	46.7597	-61.0123	-128.679	15.1941	7.23935	-121.717	13.3914	-22.9003	-103.604	11.8376	-46.6548	-114.045	-7.11951	17.0829	-102.568	-8.53833	-2.40451	-84.9164	-12.4981	-20.4321	-141.151	14.4159	53.4226	-143.732	11.9815	85.0368	-142.753	41.8969	66.4069	
440	3.66667	-95.8765	56.2106	79.5596	-69.6063	51.5917	54.7553	-54.3669	43.4101	29.5515	-41.623	32.2369	10.5355	-114.226	69.6347	5.49447	-96.338	76.1464	-18.841	-71.5383	68.5612	-29.2329	-135.519	53.7283	4.07519	-135.218	60.7267	-27.0064	-125.87	60.4148	-57.2913	-135.717	24.9575	2.55734	-130.175	23.8096	-22.8566	-115.232	23.0072	-44.3435	-126.741	3.78268	14.6157	-120.614	-1.43939	-4.6463	-105.521	-4.38761	-27.9135	-144.835	21.9431	54.8122	-148.647	21.4806	82.7222	-136.605	51.66	69.9182	
441	3.675	-85.6886	54.9915	80.8327	-63.3179	43.6327	54.3085	-45.3539	35.5024	30.443	-42.1375	22.5438	11.7414	-103.952	78.1067	14.0877	-89.8152	81.0626	-17.4566	-71.87	76.2351	-31.7311	-130.169	65.8199	3.46776	-128.845	71.0389	-21.2181	-120.404	72.5574	-53.0691	-136.171	36.245	8.81663	-131.746	38.0069	-18.8614	-121.565	30.4618	-43.4399	-136.564	15.0578	19.4583	-134.747	10.1973	-9.09779	-128.128	8.16317	-30.4472	-142.595	38.0501	58.7924	-149.124	31.4334	87.6326	-127.63	58.598	77.0114	
442	3.68333	-78.5823	51.0221	82.6497	-57.501	36.1041	60.1446	-47.4381	27.1681	34.2705	-38.1094	15.4459	10.0223	-95.0814	82.006	12.9747	-83.6825	85.9271	-11.7749	-69.1934	81.3301	-36.3519	-119.817	69.6515	7.8809	-118.348	73.4255	-20.9252	-107.332	69.3114	-56.9249	-132.927	46.0276	6.94552	-132.093	40.6649	-22.0566	-122.612	31.8724	-47.165	-145.619	26.4365	17.1615	-146.86	25.9767	-2.47624	-147.825	24.4238	-27.4376	-142.02	47.3382	57.6702	-146.36	41.6321	88.2049	-120.349	64.9275	78.2666	
443	3.69167	-77.5409	45.5125	84.9976	-56.1978	32.7324	56.8855	-43.2768	22.3202	32.9825	-36.879	10.9094	15.232	-87.9292	79.7145	13.6141	-77.7966	83.0325	-11.7231	-68.8337	79.2097	-33.6281	-115.176	67.3816	3.60294	-108.948	66.5136	-22.6655	-95.8845	58.3947	-52.3523	-130.917	48.3214	5.02078	-126.901	45.0727	-15.7806	-120.814	33.9357	-41.5143	-144.563	37.3787	22.8829	-148.462	40.4116	1.01691	-157.753	40.5447	-18.8453	-140.309	56.2324	58.7668	-144.537	48.0306	91.8524	-110.802	68.3288	78.2448	
444	3.7	-76.2011	44.5696	82.3979	-58.4701	30.6754	58.0528	-45.9627	19.5052	36.8827	-38.7503	9.06531	17.8993	-83.4602	75.2663	13.4615	-71.3537	77.3404	-8.63561	-59.5022	71.2801	-37.7255	-106.846	67.842	4.25694	-101.58	61.2313	-22.9282	-93.9989	44.9775	-51.5007	-128.845	51.8946	8.03975	-126.983	44.0114	-20.1847	-123.345	32.1194	-39.1637	-148.875	43.1439	23.8311	-153.841	46.7099	1.73915	-158.664	52.2592	-14.7267	-135.53	62.2402	60.4538	-141.062	56.4043	91.317	-108.53	68.201	82.13	
445	3.70833	-74.8744	42.4354	85.3822	-57.6478	27.1857	61.9444	-44.7009	16.8895	30.9533	-41.4759	7.80534	14.4281	-82.1142	72.3101	12.7295	-73.2558	69.59	-14.9727	-66.2203	57.3919	-38.4844	-110.055	68.7182	4.93471	-101.194	62.343	-22.7944	-96.5731	40.583	-47.9913	-126.304	56.9359	9.22811	-130.012	47.1176	-14.031	-125.444	32.4612	-36.8591	-145.341	50.3765	27.1797	-152.547	51.0787	7.4559	-160.409	56.9902	-12.7514	-134.249	66.3271	64.787	-136.071	59.8966	93.7748	-103.646	70.9469	81.0559	
446	3.71667	-74.923	41.6866	84.172	-59.4367	27.7847	54.1215	-48.4643	17.6556	33.0313	-48.3814	9.07576	12.3119	-81.7213	72.7561	14.7846	-72.4217	64.2151	-17.2538	-70.2277	45.581	-38.5729	-111.175	72.0292	4.08552	-105.825	63.7272	-22.8788	-98.825	33.8275	-46.5403	-128.578	60.731	10.2346	-129.606	50.6595	-14.949	-125.067	28.5908	-38.1337	-150.391	56.6288	25.1618	-154.659	58.6401	4.79594	-163.771	61.6649	-18.3909	-135.714	68.7553	66.3188	-135.196	64.3494	96.3033	-103.816	70.2239	82.546	
447	3.725	-74.54	41.9939	83.2533	-61.921	27.4462	56.8049	-56.577	18.3825	30.995	-55.8343	10.3953	3.68075	-87.526	73.4624	10.9965	-76.1662	62.3547	-15.986	-76.3287	36.4669	-34.5991	-109.837	76.1195	6.76197	-108.781	64.6566	-22.5519	-104.353	31.5516	-38.6397	-128.84	65.5626	12.6315	-133.347	51.3721	-17.577	-126.442	24.4999	-31.1911	-147.939	59.9071	28.1398	-156.824	63.1358	4.21952	-157.517	60.4584	-20.8872	-135.829	70.5477	63.3709	-136.76	64.6252	94.8119	-101.147	72.1302	81.45	
448	3.73333	-80.972	42.1307	82.1611	-68.8311	27.9491	56.6547	-59.7596	20.6903	24.3213	-62.6839	12.0511	1.23757	-86.7874	74.9106	14.1388	-83.5804	63.4239	-16.0645	-79.1513	32.4808	-26.2252	-114.766	79.144	8.38632	-108.698	64.467	-23.1336	-103.115	27.2571	-28.7797	-134.931	69.3549	10.3848	-133.013	52.3152	-16.227	-124.212	26.3118	-20.1946	-152.244	64.8462	27.817	-155.968	64.8352	5.63039	-154.223	51.1241	-23.1621	-134.509	72.8593	66.0874	-139.961	64.9821	94.7383	-101.505	73.6588	81.2914	
449	3.74167	-79.2473	43.8704	81.1935	-71.8244	33.2904	52.0314	-66.839	24.6616	22.3343	-76.5655	18.0819	2.19794	-88.8538	79.3511	15.4489	-86.2254	63.6406	-16.1635	-86.7762	34.0118	-19.2769	-115.501	84.3884	7.82973	-110.964	69.7325	-20.3261	-106.406	31.7124	-15.733	-132.221	72.2405	10.3809	-130.214	55.9318	-11.2189	-121.054	22.2853	-4.55265	-152.567	63.3708	29.8735	-153.589	60.8013	2.53693	-145.277	35.8891	-15.7973	-134.538	76.5816	68.2115	-139.667	67.9596	96.9089	-106.626	75.628	85.157	
450	3.75	-80.7839	45.6699	82.7723	-72.5491	35.5076	53.2974	-74.2805	31.0144	20.4551	-88.0624	25.8645	2.59354	-91.8867	86.0132	14.6945	-87.4581	70.2307	-13.0176	-83.5668	39.9867	-11.08	-114.506	89.5565	12.6664	-114.671	75.3236	-17.4376	-107.14	34.6687	-1.03199	-131.505	74.0885	12.0049	-129.548	48.878	-7.95818	-122.572	22.6674	13.0973	-149.143	65.2336	24.0002	-147.009	50.9837	0.376851	-136.247	24.1901	1.99348	-141.249	75.4846	72.0675	-141.742	67.7007	101.641	-105.562	74.933	87.6122	
451	3.75833	-83.966	48.8804	81.7638	-72.5999	38.1988	52.6305	-75.4917	35.0047	22.8061	-95.1375	32.5454	-1.20287	-93.5206	89.3797	20.52	-84.5084	75.3945	-10.0181	-82.3507	42.0104	0.823907	-115.932	92.8726	9.58266	-111.97	71.1603	-14.4047	-108.648	39.6136	10.4621	-132.06	73.6533	11.5074	-128.492	50.145	-4.29176	-118.206	28.5673	21.4911	-147.016	63.791	24.0451	-140.97	45.1478	4.63997	-131.184	20.6492	16.6307	-138.261	79.4613	71.8406	-144.561	67.283	98.9167	-110.085	77.9925	84.0259	
452	3.76667	-81.5669	49.2758	84.6647	-75.8468	43.5374	51.3892	-77.3262	40.5409	23.6799	-98.5249	37.5204	3.95646	-93.2189	94.3655	20.2014	-84.8366	81.2212	-6.22573	-85.5174	47.3894	8.9657	-117.364	93.1079	10.6472	-106.823	72.8277	-11.458	-105.542	43.2537	17.7648	-131.511	73.8694	16.1716	-123.767	47.0316	1.43224	-115.416	32.087	32.1968	-149.21	60.5584	21.7186	-137.409	40.0281	8.69267	-130.372	21.3048	32.2086	-141.239	78.527	73.2842	-142.591	68.9884	97.6929	-107.707	79.6516	91.2474	
453	3.775	-86.4873	50.9976	87.9855	-75.166	46.6004	52.2425	-79.7409	45.5833	18.1075	-101.916	41.9629	6.40946	-97.247	96.5443	21.9972	-88.2057	80.8901	-3.62464	-82.7065	51.4782	14.0673	-119.305	94.6907	17.8614	-109.048	75.9729	-9.42363	-101.881	48.2276	18.3894	-128.889	72.9468	15.8154	-117.44	44.9789	5.04642	-114.123	35.1231	37.5795	-143.878	58.6936	20.1735	-129.98	35.4735	16.4731	-124.303	27.2465	43.0364	-140.684	79.6444	74.8122	-145.21	67.324	101.76	-109.736	81.8077	91.751	
454	3.78333	-82.5159	50.6547	89.901	-76.8384	48.0679	54.2302	-78.4019	46.5816	21.327	-104.291	42.8624	5.46071	-92.8023	98.4251	29.7921	-84.4641	86.636	-0.0375369	-78.2058	55.7195	13.2011	-117.428	98.93	16.215	-108.393	78.3445	-7.93683	-103.105	48.0553	17.8777	-126.821	74.355	18.0661	-119.893	43.6823	7.28673	-114.847	35.2358	37.43	-145.374	56.7444	23.2904	-129.733	34.4019	17.9727	-124.413	28.071	48.7433	-141.626	79.3888	73.3657	-145.451	65.773	104.284	-115.689	81.9613	91.4724	
455	3.79167	-87.581	50.1012	89.2605	-74.7777	43.6412	56.6832	-81.2231	45.1666	21.0485	-101.961	40.2393	5.59629	-94.3678	98.4687	28.8805	-83.7282	87.6351	-0.672337	-78.3807	56.8673	7.32056	-119.811	97.7151	23.0437	-106.412	84.74	-9.69479	-99.9219	49.6376	4.68119	-129.882	73.0975	19.0135	-117.221	48.3333	4.64394	-110.002	33.911	36.2176	-142.531	56.2648	27.4361	-126.042	31.9915	21.8777	-121.534	25.784	51.625	-140.951	77.2174	75.1248	-145.99	62.1626	104.21	-114.98	79.1902	91.7875	
456	3.8	-88.6971	50.9709	87.0517	-72.7653	41.4642	55.5027	-81.5757	39.5159	23.8414	-100.437	34.1435	8.89644	-99.1786	96.0678	27.4408	-86.7198	89.5701	-3.06916	-81.3114	57.3973	-6.01996	-119.319	99.3217	21.2436	-112.606	92.6479	-10.1325	-103.329	54.6639	-14.1752	-131.629	69.9858	18.4846	-120.078	43.177	3.95576	-112.733	27.3056	30.1998	-143.067	49.2152	22.4289	-129.057	28.0781	21.7269	-120.152	25.0334	51.3148	-141.967	76.2237	71.2839	-144.799	66.3014	100.857	-114.915	79.4234	93.8547	
457	3.80833	-83.6704	49.8953	84.5761	-77.0755	36.9822	56.2191	-80.9302	31.0631	23.7474	-99.0247	24.1527	6.81374	-96.3304	93.9789	24.6564	-89.2082	89.2261	-6.48843	-76.9169	61.5859	-18.7201	-120.329	94.6075	21.7162	-119.235	93.9757	-13.1591	-105.398	63.6788	-33.8664	-135.564	64.0382	16.1956	-122.997	35.8836	3.34479	-110.878	21.1813	28.7812	-147.02	46.9836	26.8242	-130.728	23.9799	22.3798	-120.707	19.2314	52.7618	-143.225	76.4511	72.8795	-146.951	63.9162	98.3673	-115.242	79.4383	89.8838	
458	3.81667	-87.403	47.9107	87.5379	-75.53	33.3059	54.4718	-75.4797	22.8295	26.1285	-90.9983	14.7141	2.62104	-98.1636	89.7879	22.1694	-86.1962	90.5802	-7.69848	-81.0572	68.9427	-30.498	-126.011	92.0542	14.2043	-119.744	92.6053	-16.1918	-113.417	76.38	-43.5563	-134.282	60.9702	16.3036	-123.581	33.5178	0.778376	-116.486	12.9784	25.0639	-149.747	40.0238	26.7843	-133.578	17.1906	24.5091	-118.269	13.469	49.4398	-148.076	71.3734	70.2579	-149.385	65.1212	99.8687	-112.299	76.8067	87.4586	
